<mxfile host="app.diagrams.net" modified="2021-09-05T04:08:17.822Z" agent="5.0 (Windows NT 10.0; Win64; x64) AppleWebKit/537.36 (KHTML, like Gecko) Chrome/93.0.4577.63 Safari/537.36" etag="-DXwpIzabt9WW4erhLP5" version="15.0.6" type="github">
  <diagram id="C5RBs43oDa-KdzZeNtuy" name="Page-1">
    <mxGraphModel dx="4162" dy="393" grid="1" gridSize="10" guides="1" tooltips="1" connect="1" arrows="1" fold="1" page="1" pageScale="1" pageWidth="3300" pageHeight="2339" math="0" shadow="0">
      <root>
        <mxCell id="WIyWlLk6GJQsqaUBKTNV-0" />
        <mxCell id="WIyWlLk6GJQsqaUBKTNV-1" parent="WIyWlLk6GJQsqaUBKTNV-0" />
        <mxCell id="NZdba-9xKVuaGs2ipRYB-1" value="" style="edgeStyle=orthogonalEdgeStyle;rounded=0;orthogonalLoop=1;jettySize=auto;html=1;" edge="1" parent="WIyWlLk6GJQsqaUBKTNV-1" source="WIyWlLk6GJQsqaUBKTNV-3" target="NZdba-9xKVuaGs2ipRYB-0">
          <mxGeometry relative="1" as="geometry" />
        </mxCell>
        <mxCell id="WIyWlLk6GJQsqaUBKTNV-3" value="Pantalla de inicio" style="rounded=1;whiteSpace=wrap;html=1;fontSize=12;glass=0;strokeWidth=1;shadow=0;" parent="WIyWlLk6GJQsqaUBKTNV-1" vertex="1">
          <mxGeometry x="354" y="30" width="120" height="40" as="geometry" />
        </mxCell>
        <mxCell id="NZdba-9xKVuaGs2ipRYB-3" value="" style="edgeStyle=orthogonalEdgeStyle;rounded=0;orthogonalLoop=1;jettySize=auto;html=1;" edge="1" parent="WIyWlLk6GJQsqaUBKTNV-1" source="NZdba-9xKVuaGs2ipRYB-0" target="NZdba-9xKVuaGs2ipRYB-2">
          <mxGeometry relative="1" as="geometry" />
        </mxCell>
        <mxCell id="NZdba-9xKVuaGs2ipRYB-0" value="Fenris, el elfo, deja como encargo a Dana, su aprendiz de magia, que cree una barrera de proteción para la Torre" style="whiteSpace=wrap;html=1;rounded=1;shadow=0;strokeWidth=1;glass=0;" vertex="1" parent="WIyWlLk6GJQsqaUBKTNV-1">
          <mxGeometry x="314" y="110" width="200" height="80" as="geometry" />
        </mxCell>
        <mxCell id="NZdba-9xKVuaGs2ipRYB-5" value="" style="edgeStyle=orthogonalEdgeStyle;rounded=0;orthogonalLoop=1;jettySize=auto;html=1;" edge="1" parent="WIyWlLk6GJQsqaUBKTNV-1" source="NZdba-9xKVuaGs2ipRYB-2" target="NZdba-9xKVuaGs2ipRYB-4">
          <mxGeometry relative="1" as="geometry" />
        </mxCell>
        <mxCell id="NZdba-9xKVuaGs2ipRYB-2" value="Dana tiene la receta del hechizo, pero el último ingrediente no se lee" style="whiteSpace=wrap;html=1;rounded=1;shadow=0;strokeWidth=1;glass=0;" vertex="1" parent="WIyWlLk6GJQsqaUBKTNV-1">
          <mxGeometry x="329" y="220" width="170" height="60" as="geometry" />
        </mxCell>
        <mxCell id="NZdba-9xKVuaGs2ipRYB-4" value="Con ayuda de Estarossa, el gato negro, salen en busca del ingrediente misterioso" style="whiteSpace=wrap;html=1;rounded=1;shadow=0;strokeWidth=1;glass=0;" vertex="1" parent="WIyWlLk6GJQsqaUBKTNV-1">
          <mxGeometry x="339" y="310" width="150" height="60" as="geometry" />
        </mxCell>
        <mxCell id="NZdba-9xKVuaGs2ipRYB-6" value="" style="endArrow=classic;html=1;exitX=0.5;exitY=1;exitDx=0;exitDy=0;rounded=1;" edge="1" parent="WIyWlLk6GJQsqaUBKTNV-1" source="NZdba-9xKVuaGs2ipRYB-4">
          <mxGeometry width="50" height="50" relative="1" as="geometry">
            <mxPoint x="584" y="430" as="sourcePoint" />
            <mxPoint x="414" y="480" as="targetPoint" />
            <Array as="points" />
          </mxGeometry>
        </mxCell>
        <mxCell id="NZdba-9xKVuaGs2ipRYB-7" value="&lt;span style=&quot;background-color: rgb(255 , 255 , 255)&quot;&gt;Escoge un camino&lt;/span&gt;" style="text;html=1;align=center;verticalAlign=middle;whiteSpace=wrap;rounded=0;shadow=0;sketch=0;glass=0;" vertex="1" parent="WIyWlLk6GJQsqaUBKTNV-1">
          <mxGeometry x="359" y="390" width="110" height="20" as="geometry" />
        </mxCell>
        <mxCell id="NZdba-9xKVuaGs2ipRYB-9" value="" style="endArrow=none;html=1;" edge="1" parent="WIyWlLk6GJQsqaUBKTNV-1">
          <mxGeometry width="50" height="50" relative="1" as="geometry">
            <mxPoint x="50" y="440" as="sourcePoint" />
            <mxPoint x="780" y="440" as="targetPoint" />
          </mxGeometry>
        </mxCell>
        <mxCell id="NZdba-9xKVuaGs2ipRYB-13" value="" style="edgeStyle=orthogonalEdgeStyle;rounded=1;orthogonalLoop=1;jettySize=auto;html=1;" edge="1" parent="WIyWlLk6GJQsqaUBKTNV-1" source="NZdba-9xKVuaGs2ipRYB-11" target="NZdba-9xKVuaGs2ipRYB-12">
          <mxGeometry relative="1" as="geometry" />
        </mxCell>
        <mxCell id="NZdba-9xKVuaGs2ipRYB-11" value="Camino 2" style="rhombus;whiteSpace=wrap;html=1;" vertex="1" parent="WIyWlLk6GJQsqaUBKTNV-1">
          <mxGeometry x="374" y="480" width="80" height="80" as="geometry" />
        </mxCell>
        <mxCell id="NZdba-9xKVuaGs2ipRYB-65" value="" style="edgeStyle=orthogonalEdgeStyle;rounded=1;orthogonalLoop=1;jettySize=auto;html=1;" edge="1" parent="WIyWlLk6GJQsqaUBKTNV-1" source="NZdba-9xKVuaGs2ipRYB-12" target="NZdba-9xKVuaGs2ipRYB-64">
          <mxGeometry relative="1" as="geometry" />
        </mxCell>
        <mxCell id="NZdba-9xKVuaGs2ipRYB-12" value="Hay un gato blanco" style="whiteSpace=wrap;html=1;" vertex="1" parent="WIyWlLk6GJQsqaUBKTNV-1">
          <mxGeometry x="370" y="585" width="90" height="35" as="geometry" />
        </mxCell>
        <mxCell id="NZdba-9xKVuaGs2ipRYB-14" value="" style="edgeStyle=orthogonalEdgeStyle;rounded=1;orthogonalLoop=1;jettySize=auto;html=1;" edge="1" parent="WIyWlLk6GJQsqaUBKTNV-1" source="NZdba-9xKVuaGs2ipRYB-15" target="NZdba-9xKVuaGs2ipRYB-16">
          <mxGeometry relative="1" as="geometry" />
        </mxCell>
        <mxCell id="NZdba-9xKVuaGs2ipRYB-15" value="Camino 3" style="rhombus;whiteSpace=wrap;html=1;" vertex="1" parent="WIyWlLk6GJQsqaUBKTNV-1">
          <mxGeometry x="741" y="480" width="80" height="80" as="geometry" />
        </mxCell>
        <mxCell id="NZdba-9xKVuaGs2ipRYB-18" value="" style="edgeStyle=orthogonalEdgeStyle;rounded=1;orthogonalLoop=1;jettySize=auto;html=1;" edge="1" parent="WIyWlLk6GJQsqaUBKTNV-1" source="NZdba-9xKVuaGs2ipRYB-16" target="NZdba-9xKVuaGs2ipRYB-17">
          <mxGeometry relative="1" as="geometry" />
        </mxCell>
        <mxCell id="NZdba-9xKVuaGs2ipRYB-16" value="Una mini fogata pide ayuda para que no se termine de consumir (morir)" style="whiteSpace=wrap;html=1;" vertex="1" parent="WIyWlLk6GJQsqaUBKTNV-1">
          <mxGeometry x="713" y="600" width="136" height="55" as="geometry" />
        </mxCell>
        <mxCell id="NZdba-9xKVuaGs2ipRYB-20" value="" style="edgeStyle=orthogonalEdgeStyle;rounded=1;orthogonalLoop=1;jettySize=auto;html=1;" edge="1" parent="WIyWlLk6GJQsqaUBKTNV-1" source="NZdba-9xKVuaGs2ipRYB-17" target="NZdba-9xKVuaGs2ipRYB-19">
          <mxGeometry relative="1" as="geometry" />
        </mxCell>
        <mxCell id="NZdba-9xKVuaGs2ipRYB-22" value="" style="edgeStyle=orthogonalEdgeStyle;rounded=1;orthogonalLoop=1;jettySize=auto;html=1;" edge="1" parent="WIyWlLk6GJQsqaUBKTNV-1" source="NZdba-9xKVuaGs2ipRYB-17" target="NZdba-9xKVuaGs2ipRYB-21">
          <mxGeometry relative="1" as="geometry" />
        </mxCell>
        <mxCell id="NZdba-9xKVuaGs2ipRYB-17" value="¿Ayudar?" style="rhombus;whiteSpace=wrap;html=1;" vertex="1" parent="WIyWlLk6GJQsqaUBKTNV-1">
          <mxGeometry x="741" y="680" width="80" height="80" as="geometry" />
        </mxCell>
        <mxCell id="NZdba-9xKVuaGs2ipRYB-24" value="" style="edgeStyle=orthogonalEdgeStyle;rounded=1;orthogonalLoop=1;jettySize=auto;html=1;" edge="1" parent="WIyWlLk6GJQsqaUBKTNV-1" source="NZdba-9xKVuaGs2ipRYB-19" target="NZdba-9xKVuaGs2ipRYB-23">
          <mxGeometry relative="1" as="geometry" />
        </mxCell>
        <mxCell id="NZdba-9xKVuaGs2ipRYB-19" value="No" style="whiteSpace=wrap;html=1;" vertex="1" parent="WIyWlLk6GJQsqaUBKTNV-1">
          <mxGeometry x="881" y="700" width="40" height="40" as="geometry" />
        </mxCell>
        <mxCell id="NZdba-9xKVuaGs2ipRYB-26" value="" style="edgeStyle=orthogonalEdgeStyle;rounded=1;orthogonalLoop=1;jettySize=auto;html=1;" edge="1" parent="WIyWlLk6GJQsqaUBKTNV-1" source="NZdba-9xKVuaGs2ipRYB-21" target="NZdba-9xKVuaGs2ipRYB-25">
          <mxGeometry relative="1" as="geometry" />
        </mxCell>
        <mxCell id="NZdba-9xKVuaGs2ipRYB-21" value="Sí" style="whiteSpace=wrap;html=1;" vertex="1" parent="WIyWlLk6GJQsqaUBKTNV-1">
          <mxGeometry x="640" y="700" width="40" height="40" as="geometry" />
        </mxCell>
        <mxCell id="NZdba-9xKVuaGs2ipRYB-23" value="La llama de fuego se termina de consumir y muere" style="whiteSpace=wrap;html=1;" vertex="1" parent="WIyWlLk6GJQsqaUBKTNV-1">
          <mxGeometry x="841" y="770" width="120" height="60" as="geometry" />
        </mxCell>
        <mxCell id="NZdba-9xKVuaGs2ipRYB-28" value="" style="edgeStyle=orthogonalEdgeStyle;rounded=1;orthogonalLoop=1;jettySize=auto;html=1;" edge="1" parent="WIyWlLk6GJQsqaUBKTNV-1" source="NZdba-9xKVuaGs2ipRYB-25" target="NZdba-9xKVuaGs2ipRYB-27">
          <mxGeometry relative="1" as="geometry" />
        </mxCell>
        <mxCell id="NZdba-9xKVuaGs2ipRYB-25" value="Resulta que era Calcifer, el demonio fuego" style="whiteSpace=wrap;html=1;" vertex="1" parent="WIyWlLk6GJQsqaUBKTNV-1">
          <mxGeometry x="600" y="760" width="120" height="60" as="geometry" />
        </mxCell>
        <mxCell id="NZdba-9xKVuaGs2ipRYB-78" value="" style="edgeStyle=orthogonalEdgeStyle;rounded=1;orthogonalLoop=1;jettySize=auto;html=1;" edge="1" parent="WIyWlLk6GJQsqaUBKTNV-1" source="NZdba-9xKVuaGs2ipRYB-27" target="NZdba-9xKVuaGs2ipRYB-73">
          <mxGeometry relative="1" as="geometry" />
        </mxCell>
        <mxCell id="NZdba-9xKVuaGs2ipRYB-27" value="Calcifer crece cada vez más y se apodera de la Torre" style="whiteSpace=wrap;html=1;" vertex="1" parent="WIyWlLk6GJQsqaUBKTNV-1">
          <mxGeometry x="600" y="840" width="120" height="60" as="geometry" />
        </mxCell>
        <mxCell id="NZdba-9xKVuaGs2ipRYB-30" value="" style="endArrow=none;html=1;entryX=0.5;entryY=1;entryDx=0;entryDy=0;" edge="1" parent="WIyWlLk6GJQsqaUBKTNV-1" target="NZdba-9xKVuaGs2ipRYB-23">
          <mxGeometry width="50" height="50" relative="1" as="geometry">
            <mxPoint x="901" y="880" as="sourcePoint" />
            <mxPoint x="721" y="740" as="targetPoint" />
          </mxGeometry>
        </mxCell>
        <mxCell id="NZdba-9xKVuaGs2ipRYB-31" value="" style="endArrow=none;html=1;startArrow=none;" edge="1" parent="WIyWlLk6GJQsqaUBKTNV-1" source="NZdba-9xKVuaGs2ipRYB-35">
          <mxGeometry width="50" height="50" relative="1" as="geometry">
            <mxPoint x="981" y="880" as="sourcePoint" />
            <mxPoint x="901" y="880" as="targetPoint" />
          </mxGeometry>
        </mxCell>
        <mxCell id="NZdba-9xKVuaGs2ipRYB-32" value="" style="endArrow=none;html=1;" edge="1" parent="WIyWlLk6GJQsqaUBKTNV-1">
          <mxGeometry width="50" height="50" relative="1" as="geometry">
            <mxPoint x="990" y="880" as="sourcePoint" />
            <mxPoint x="990" y="400" as="targetPoint" />
          </mxGeometry>
        </mxCell>
        <mxCell id="NZdba-9xKVuaGs2ipRYB-33" value="" style="endArrow=classic;html=1;" edge="1" parent="WIyWlLk6GJQsqaUBKTNV-1">
          <mxGeometry width="50" height="50" relative="1" as="geometry">
            <mxPoint x="990" y="400" as="sourcePoint" />
            <mxPoint x="480" y="400" as="targetPoint" />
          </mxGeometry>
        </mxCell>
        <mxCell id="NZdba-9xKVuaGs2ipRYB-35" value="Regresas a los caminos" style="text;html=1;align=center;verticalAlign=middle;whiteSpace=wrap;rounded=0;shadow=0;glass=0;sketch=0;" vertex="1" parent="WIyWlLk6GJQsqaUBKTNV-1">
          <mxGeometry x="921" y="870" width="40" height="20" as="geometry" />
        </mxCell>
        <mxCell id="NZdba-9xKVuaGs2ipRYB-36" value="" style="endArrow=none;html=1;" edge="1" parent="WIyWlLk6GJQsqaUBKTNV-1" target="NZdba-9xKVuaGs2ipRYB-35">
          <mxGeometry width="50" height="50" relative="1" as="geometry">
            <mxPoint x="990" y="880" as="sourcePoint" />
            <mxPoint x="901" y="880" as="targetPoint" />
          </mxGeometry>
        </mxCell>
        <mxCell id="NZdba-9xKVuaGs2ipRYB-37" value="" style="edgeStyle=orthogonalEdgeStyle;rounded=1;orthogonalLoop=1;jettySize=auto;html=1;" edge="1" parent="WIyWlLk6GJQsqaUBKTNV-1" source="NZdba-9xKVuaGs2ipRYB-38" target="NZdba-9xKVuaGs2ipRYB-40">
          <mxGeometry relative="1" as="geometry" />
        </mxCell>
        <mxCell id="NZdba-9xKVuaGs2ipRYB-38" value="Camino 1" style="rhombus;whiteSpace=wrap;html=1;" vertex="1" parent="WIyWlLk6GJQsqaUBKTNV-1">
          <mxGeometry x="11" y="480" width="80" height="80" as="geometry" />
        </mxCell>
        <mxCell id="NZdba-9xKVuaGs2ipRYB-57" value="" style="edgeStyle=orthogonalEdgeStyle;rounded=1;orthogonalLoop=1;jettySize=auto;html=1;" edge="1" parent="WIyWlLk6GJQsqaUBKTNV-1" source="NZdba-9xKVuaGs2ipRYB-40" target="NZdba-9xKVuaGs2ipRYB-56">
          <mxGeometry relative="1" as="geometry" />
        </mxCell>
        <mxCell id="NZdba-9xKVuaGs2ipRYB-40" value="Encuentran un huevo gigante y tratan de llevarselo" style="whiteSpace=wrap;html=1;" vertex="1" parent="WIyWlLk6GJQsqaUBKTNV-1">
          <mxGeometry x="-17" y="600" width="136" height="55" as="geometry" />
        </mxCell>
        <mxCell id="NZdba-9xKVuaGs2ipRYB-41" value="" style="edgeStyle=orthogonalEdgeStyle;rounded=1;orthogonalLoop=1;jettySize=auto;html=1;" edge="1" parent="WIyWlLk6GJQsqaUBKTNV-1" source="NZdba-9xKVuaGs2ipRYB-43" target="NZdba-9xKVuaGs2ipRYB-45">
          <mxGeometry relative="1" as="geometry" />
        </mxCell>
        <mxCell id="NZdba-9xKVuaGs2ipRYB-42" value="" style="edgeStyle=orthogonalEdgeStyle;rounded=1;orthogonalLoop=1;jettySize=auto;html=1;" edge="1" parent="WIyWlLk6GJQsqaUBKTNV-1" source="NZdba-9xKVuaGs2ipRYB-43" target="NZdba-9xKVuaGs2ipRYB-47">
          <mxGeometry relative="1" as="geometry" />
        </mxCell>
        <mxCell id="NZdba-9xKVuaGs2ipRYB-43" value="¿Que eliges?" style="rhombus;whiteSpace=wrap;html=1;" vertex="1" parent="WIyWlLk6GJQsqaUBKTNV-1">
          <mxGeometry x="11" y="770" width="80" height="80" as="geometry" />
        </mxCell>
        <mxCell id="NZdba-9xKVuaGs2ipRYB-44" value="" style="edgeStyle=orthogonalEdgeStyle;rounded=1;orthogonalLoop=1;jettySize=auto;html=1;" edge="1" parent="WIyWlLk6GJQsqaUBKTNV-1" source="NZdba-9xKVuaGs2ipRYB-45" target="NZdba-9xKVuaGs2ipRYB-48">
          <mxGeometry relative="1" as="geometry" />
        </mxCell>
        <mxCell id="NZdba-9xKVuaGs2ipRYB-45" value="Llevarse el huevo" style="whiteSpace=wrap;html=1;" vertex="1" parent="WIyWlLk6GJQsqaUBKTNV-1">
          <mxGeometry x="151" y="790" width="59" height="40" as="geometry" />
        </mxCell>
        <mxCell id="NZdba-9xKVuaGs2ipRYB-47" value="Huir" style="whiteSpace=wrap;html=1;" vertex="1" parent="WIyWlLk6GJQsqaUBKTNV-1">
          <mxGeometry x="-90" y="790" width="40" height="40" as="geometry" />
        </mxCell>
        <mxCell id="NZdba-9xKVuaGs2ipRYB-77" value="" style="edgeStyle=orthogonalEdgeStyle;rounded=1;orthogonalLoop=1;jettySize=auto;html=1;" edge="1" parent="WIyWlLk6GJQsqaUBKTNV-1" source="NZdba-9xKVuaGs2ipRYB-48" target="NZdba-9xKVuaGs2ipRYB-74">
          <mxGeometry relative="1" as="geometry" />
        </mxCell>
        <mxCell id="NZdba-9xKVuaGs2ipRYB-48" value="El huevo se rompe y los lleva a otra dimensión" style="whiteSpace=wrap;html=1;" vertex="1" parent="WIyWlLk6GJQsqaUBKTNV-1">
          <mxGeometry x="120.5" y="880" width="120" height="60" as="geometry" />
        </mxCell>
        <mxCell id="NZdba-9xKVuaGs2ipRYB-58" value="" style="edgeStyle=orthogonalEdgeStyle;rounded=1;orthogonalLoop=1;jettySize=auto;html=1;" edge="1" parent="WIyWlLk6GJQsqaUBKTNV-1" source="NZdba-9xKVuaGs2ipRYB-56" target="NZdba-9xKVuaGs2ipRYB-43">
          <mxGeometry relative="1" as="geometry" />
        </mxCell>
        <mxCell id="NZdba-9xKVuaGs2ipRYB-56" value="Un ganso salvaje los quiere atacar" style="whiteSpace=wrap;html=1;" vertex="1" parent="WIyWlLk6GJQsqaUBKTNV-1">
          <mxGeometry x="-9" y="680" width="120" height="60" as="geometry" />
        </mxCell>
        <mxCell id="NZdba-9xKVuaGs2ipRYB-59" value="" style="endArrow=none;html=1;exitX=0.5;exitY=1;exitDx=0;exitDy=0;" edge="1" parent="WIyWlLk6GJQsqaUBKTNV-1" source="NZdba-9xKVuaGs2ipRYB-47">
          <mxGeometry width="50" height="50" relative="1" as="geometry">
            <mxPoint x="-30" y="840" as="sourcePoint" />
            <mxPoint x="-70" y="880" as="targetPoint" />
          </mxGeometry>
        </mxCell>
        <mxCell id="NZdba-9xKVuaGs2ipRYB-60" value="" style="endArrow=none;html=1;" edge="1" parent="WIyWlLk6GJQsqaUBKTNV-1">
          <mxGeometry width="50" height="50" relative="1" as="geometry">
            <mxPoint x="-70" y="880" as="sourcePoint" />
            <mxPoint x="-130" y="880" as="targetPoint" />
          </mxGeometry>
        </mxCell>
        <mxCell id="NZdba-9xKVuaGs2ipRYB-61" value="" style="endArrow=none;html=1;" edge="1" parent="WIyWlLk6GJQsqaUBKTNV-1">
          <mxGeometry width="50" height="50" relative="1" as="geometry">
            <mxPoint x="-130" y="880" as="sourcePoint" />
            <mxPoint x="-130" y="400" as="targetPoint" />
          </mxGeometry>
        </mxCell>
        <mxCell id="NZdba-9xKVuaGs2ipRYB-62" value="" style="endArrow=classic;html=1;" edge="1" parent="WIyWlLk6GJQsqaUBKTNV-1" target="NZdba-9xKVuaGs2ipRYB-7">
          <mxGeometry width="50" height="50" relative="1" as="geometry">
            <mxPoint x="-130" y="400" as="sourcePoint" />
            <mxPoint x="-50" y="390" as="targetPoint" />
          </mxGeometry>
        </mxCell>
        <mxCell id="NZdba-9xKVuaGs2ipRYB-63" value="&lt;span style=&quot;background-color: rgb(255 , 255 , 255)&quot;&gt;Regresas a los caminos&lt;/span&gt;" style="text;html=1;align=center;verticalAlign=middle;whiteSpace=wrap;rounded=0;shadow=0;glass=0;sketch=0;" vertex="1" parent="WIyWlLk6GJQsqaUBKTNV-1">
          <mxGeometry x="-120" y="870" width="40" height="20" as="geometry" />
        </mxCell>
        <mxCell id="NZdba-9xKVuaGs2ipRYB-67" value="" style="edgeStyle=orthogonalEdgeStyle;rounded=1;orthogonalLoop=1;jettySize=auto;html=1;" edge="1" parent="WIyWlLk6GJQsqaUBKTNV-1" source="NZdba-9xKVuaGs2ipRYB-64" target="NZdba-9xKVuaGs2ipRYB-66">
          <mxGeometry relative="1" as="geometry" />
        </mxCell>
        <mxCell id="NZdba-9xKVuaGs2ipRYB-64" value="Pelea entre Estarossa y Mael, el gato blanco&amp;nbsp;" style="whiteSpace=wrap;html=1;" vertex="1" parent="WIyWlLk6GJQsqaUBKTNV-1">
          <mxGeometry x="354" y="650" width="120" height="60" as="geometry" />
        </mxCell>
        <mxCell id="NZdba-9xKVuaGs2ipRYB-69" value="" style="edgeStyle=orthogonalEdgeStyle;rounded=1;orthogonalLoop=1;jettySize=auto;html=1;" edge="1" parent="WIyWlLk6GJQsqaUBKTNV-1" source="NZdba-9xKVuaGs2ipRYB-66" target="NZdba-9xKVuaGs2ipRYB-68">
          <mxGeometry relative="1" as="geometry" />
        </mxCell>
        <mxCell id="NZdba-9xKVuaGs2ipRYB-66" value="Se reconcilian y Mael les muestra un mundo secreto" style="whiteSpace=wrap;html=1;" vertex="1" parent="WIyWlLk6GJQsqaUBKTNV-1">
          <mxGeometry x="354" y="730" width="120" height="60" as="geometry" />
        </mxCell>
        <mxCell id="NZdba-9xKVuaGs2ipRYB-71" value="" style="edgeStyle=orthogonalEdgeStyle;rounded=1;orthogonalLoop=1;jettySize=auto;html=1;" edge="1" parent="WIyWlLk6GJQsqaUBKTNV-1" source="NZdba-9xKVuaGs2ipRYB-68" target="NZdba-9xKVuaGs2ipRYB-70">
          <mxGeometry relative="1" as="geometry" />
        </mxCell>
        <mxCell id="NZdba-9xKVuaGs2ipRYB-68" value="En el mundo Ghibli, una carbonilla les da un ingrediente multifuncional" style="whiteSpace=wrap;html=1;" vertex="1" parent="WIyWlLk6GJQsqaUBKTNV-1">
          <mxGeometry x="354" y="810" width="120" height="60" as="geometry" />
        </mxCell>
        <mxCell id="NZdba-9xKVuaGs2ipRYB-79" value="" style="edgeStyle=orthogonalEdgeStyle;rounded=1;orthogonalLoop=1;jettySize=auto;html=1;" edge="1" parent="WIyWlLk6GJQsqaUBKTNV-1" source="NZdba-9xKVuaGs2ipRYB-70" target="NZdba-9xKVuaGs2ipRYB-75">
          <mxGeometry relative="1" as="geometry" />
        </mxCell>
        <mxCell id="NZdba-9xKVuaGs2ipRYB-70" value="Dana logra hacer el hechizo" style="whiteSpace=wrap;html=1;" vertex="1" parent="WIyWlLk6GJQsqaUBKTNV-1">
          <mxGeometry x="354" y="890" width="120" height="60" as="geometry" />
        </mxCell>
        <mxCell id="NZdba-9xKVuaGs2ipRYB-72" value="Créditos / Reiniciar" style="whiteSpace=wrap;html=1;aspect=fixed;rounded=0;shadow=0;glass=0;sketch=0;" vertex="1" parent="WIyWlLk6GJQsqaUBKTNV-1">
          <mxGeometry x="374" y="1070" width="80" height="80" as="geometry" />
        </mxCell>
        <mxCell id="NZdba-9xKVuaGs2ipRYB-73" value="PIERDES" style="rounded=1;whiteSpace=wrap;html=1;shadow=0;glass=0;sketch=0;" vertex="1" parent="WIyWlLk6GJQsqaUBKTNV-1">
          <mxGeometry x="620" y="930" width="80" height="40" as="geometry" />
        </mxCell>
        <mxCell id="NZdba-9xKVuaGs2ipRYB-74" value="PIERDES" style="rounded=1;whiteSpace=wrap;html=1;shadow=0;glass=0;sketch=0;" vertex="1" parent="WIyWlLk6GJQsqaUBKTNV-1">
          <mxGeometry x="140.5" y="970" width="80" height="40" as="geometry" />
        </mxCell>
        <mxCell id="NZdba-9xKVuaGs2ipRYB-81" value="" style="edgeStyle=orthogonalEdgeStyle;rounded=1;orthogonalLoop=1;jettySize=auto;html=1;" edge="1" parent="WIyWlLk6GJQsqaUBKTNV-1" source="NZdba-9xKVuaGs2ipRYB-75" target="NZdba-9xKVuaGs2ipRYB-72">
          <mxGeometry relative="1" as="geometry" />
        </mxCell>
        <mxCell id="NZdba-9xKVuaGs2ipRYB-75" value="GANAS" style="rounded=1;whiteSpace=wrap;html=1;shadow=0;glass=0;sketch=0;" vertex="1" parent="WIyWlLk6GJQsqaUBKTNV-1">
          <mxGeometry x="374" y="980" width="80" height="40" as="geometry" />
        </mxCell>
        <mxCell id="NZdba-9xKVuaGs2ipRYB-84" value="" style="endArrow=classic;html=1;entryX=0.5;entryY=0;entryDx=0;entryDy=0;" edge="1" parent="WIyWlLk6GJQsqaUBKTNV-1" target="NZdba-9xKVuaGs2ipRYB-38">
          <mxGeometry width="50" height="50" relative="1" as="geometry">
            <mxPoint x="51" y="440" as="sourcePoint" />
            <mxPoint x="70" y="570" as="targetPoint" />
          </mxGeometry>
        </mxCell>
        <mxCell id="NZdba-9xKVuaGs2ipRYB-85" value="" style="endArrow=classic;html=1;entryX=0.5;entryY=0;entryDx=0;entryDy=0;" edge="1" parent="WIyWlLk6GJQsqaUBKTNV-1" target="NZdba-9xKVuaGs2ipRYB-15">
          <mxGeometry width="50" height="50" relative="1" as="geometry">
            <mxPoint x="781" y="440" as="sourcePoint" />
            <mxPoint x="800" y="570" as="targetPoint" />
          </mxGeometry>
        </mxCell>
        <mxCell id="NZdba-9xKVuaGs2ipRYB-86" value="" style="endArrow=classic;html=1;entryX=0;entryY=0.5;entryDx=0;entryDy=0;" edge="1" parent="WIyWlLk6GJQsqaUBKTNV-1" target="NZdba-9xKVuaGs2ipRYB-72">
          <mxGeometry width="50" height="50" relative="1" as="geometry">
            <mxPoint x="180" y="1110" as="sourcePoint" />
            <mxPoint x="470" y="1040" as="targetPoint" />
          </mxGeometry>
        </mxCell>
        <mxCell id="NZdba-9xKVuaGs2ipRYB-87" value="" style="endArrow=classic;html=1;entryX=1;entryY=0.5;entryDx=0;entryDy=0;" edge="1" parent="WIyWlLk6GJQsqaUBKTNV-1" target="NZdba-9xKVuaGs2ipRYB-72">
          <mxGeometry width="50" height="50" relative="1" as="geometry">
            <mxPoint x="660" y="1110" as="sourcePoint" />
            <mxPoint x="470" y="1040" as="targetPoint" />
          </mxGeometry>
        </mxCell>
        <mxCell id="NZdba-9xKVuaGs2ipRYB-88" value="" style="endArrow=none;html=1;entryX=0.5;entryY=1;entryDx=0;entryDy=0;" edge="1" parent="WIyWlLk6GJQsqaUBKTNV-1" target="NZdba-9xKVuaGs2ipRYB-74">
          <mxGeometry width="50" height="50" relative="1" as="geometry">
            <mxPoint x="181" y="1110" as="sourcePoint" />
            <mxPoint x="470" y="1040" as="targetPoint" />
          </mxGeometry>
        </mxCell>
        <mxCell id="NZdba-9xKVuaGs2ipRYB-89" value="" style="endArrow=none;html=1;entryX=0.5;entryY=1;entryDx=0;entryDy=0;" edge="1" parent="WIyWlLk6GJQsqaUBKTNV-1" target="NZdba-9xKVuaGs2ipRYB-73">
          <mxGeometry width="50" height="50" relative="1" as="geometry">
            <mxPoint x="660" y="1110" as="sourcePoint" />
            <mxPoint x="470" y="1040" as="targetPoint" />
          </mxGeometry>
        </mxCell>
        <mxCell id="NZdba-9xKVuaGs2ipRYB-90" value="" style="endArrow=none;html=1;entryX=0.5;entryY=1;entryDx=0;entryDy=0;" edge="1" parent="WIyWlLk6GJQsqaUBKTNV-1" target="NZdba-9xKVuaGs2ipRYB-72">
          <mxGeometry width="50" height="50" relative="1" as="geometry">
            <mxPoint x="414" y="1200" as="sourcePoint" />
            <mxPoint x="440" y="1040" as="targetPoint" />
          </mxGeometry>
        </mxCell>
        <mxCell id="NZdba-9xKVuaGs2ipRYB-91" value="" style="endArrow=classic;html=1;entryX=0;entryY=0.5;entryDx=0;entryDy=0;" edge="1" parent="WIyWlLk6GJQsqaUBKTNV-1" target="WIyWlLk6GJQsqaUBKTNV-3">
          <mxGeometry width="50" height="50" relative="1" as="geometry">
            <mxPoint x="-200" y="50" as="sourcePoint" />
            <mxPoint x="230" y="180" as="targetPoint" />
          </mxGeometry>
        </mxCell>
        <mxCell id="NZdba-9xKVuaGs2ipRYB-92" value="" style="endArrow=none;html=1;" edge="1" parent="WIyWlLk6GJQsqaUBKTNV-1">
          <mxGeometry width="50" height="50" relative="1" as="geometry">
            <mxPoint x="-200" y="1200" as="sourcePoint" />
            <mxPoint x="-200" y="50" as="targetPoint" />
          </mxGeometry>
        </mxCell>
        <mxCell id="NZdba-9xKVuaGs2ipRYB-93" value="" style="endArrow=none;html=1;" edge="1" parent="WIyWlLk6GJQsqaUBKTNV-1">
          <mxGeometry width="50" height="50" relative="1" as="geometry">
            <mxPoint x="-200" y="1200" as="sourcePoint" />
            <mxPoint x="414" y="1200" as="targetPoint" />
          </mxGeometry>
        </mxCell>
      </root>
    </mxGraphModel>
  </diagram>
</mxfile>
